<svg width="25" height="25" viewBox="0 0 25 25" fill="none" xmlns="http://www.w3.org/2000/svg">
<g id="Download">
<g id="Icon">
<path d="M4.24659 1.2336C3.58293 1.2336 3.04492 1.77161 3.04492 2.43527C3.04492 3.09893 3.58293 3.63694 4.24659 3.63694H5.71169L6.07887 5.10567C6.08272 5.12265 6.08694 5.13949 6.0915 5.15619L7.72244 11.6799L6.64986 12.7525C5.13585 14.2665 6.20813 16.8553 8.34928 16.8553H18.6665C19.3302 16.8553 19.8682 16.3173 19.8682 15.6536C19.8682 14.9899 19.3302 14.4519 18.6665 14.4519L8.34928 14.4519L9.55094 13.2503H17.4649C17.9201 13.2503 18.3362 12.9931 18.5397 12.586L22.1447 5.37601C22.331 5.0035 22.3111 4.56112 22.0921 4.20685C21.8732 3.85258 21.4864 3.63694 21.0699 3.63694H8.18899L7.81571 2.14382C7.68197 1.60888 7.20133 1.2336 6.64992 1.2336H4.24659Z" fill="#937DC2"/>
<path d="M19.8683 19.8594C19.8683 20.8549 19.0612 21.6619 18.0658 21.6619C17.0703 21.6619 16.2633 20.8549 16.2633 19.8594C16.2633 18.8639 17.0703 18.0569 18.0658 18.0569C19.0612 18.0569 19.8683 18.8639 19.8683 19.8594Z" fill="#937DC2"/>
<path d="M8.45242 21.6619C9.44792 21.6619 10.2549 20.8549 10.2549 19.8594C10.2549 18.8639 9.44792 18.0569 8.45242 18.0569C7.45693 18.0569 6.64992 18.8639 6.64992 19.8594C6.64992 20.8549 7.45693 21.6619 8.45242 21.6619Z" fill="#937DC2"/>
</g>
</g>
</svg>
