<svg width="32" height="33" viewBox="0 0 32 33" fill="none" xmlns="http://www.w3.org/2000/svg">
<g id="ant-design:heart-outlined">
<path id="Vector" d="M27.4195 9.69095C27.0471 8.80752 26.5102 8.00698 25.8388 7.33412C25.1669 6.65925 24.3746 6.12294 23.5052 5.75436C22.6036 5.37064 21.6367 5.17423 20.6604 5.17653C19.2908 5.17653 17.9546 5.5608 16.7933 6.28663C16.5155 6.46027 16.2516 6.65098 16.0016 6.85876C15.7516 6.65098 15.4876 6.46027 15.2098 6.28663C14.0486 5.5608 12.7123 5.17653 11.3427 5.17653C10.3565 5.17653 9.40085 5.37009 8.49797 5.75436C7.62565 6.12439 6.83945 6.65667 6.16437 7.33412C5.49207 8.00622 4.95501 8.80695 4.58364 9.69095C4.00024 10.4392 4.00024 11.5867 4.00024 12.5914C4.00024 13.5393 4.18915 14.527 4.5642 15.5318C4.87812 16.3715 5.32817 17.2425 5.90323 18.122C6.81445 19.5139 8.06736 20.9656 9.62309 22.4372C12.2012 24.8766 14.7542 26.5616 14.8626 26.63L15.521 27.0626C15.8127 27.2533 16.1877 27.2533 16.4794 27.0626L17.1378 26.63C17.2462 26.5588 19.7965 24.8766 22.3773 22.4372C23.933 20.9656 25.1859 19.5139 26.0972 18.122C26.6722 17.2425 27.125 16.3715 27.4362 15.5318C27.8112 14.527 28.0002 13.5393 28.0002 12.5914C28.003 11.5867 27.8057 10.6103 27.4195 9.69095Z" fill="#937DC2"/>
</g>
</svg>
