<svg width="21" height="21" viewBox="0 0 21 21" fill="none" xmlns="http://www.w3.org/2000/svg">
<g id="Search">
<path id="Icon" opacity="0.6" fill-rule="evenodd" clip-rule="evenodd" d="M8.93973 4.04403C6.72752 4.04403 4.93417 5.83738 4.93417 8.04959C4.93417 10.2618 6.72752 12.0551 8.93973 12.0551C11.1519 12.0551 12.9453 10.2618 12.9453 8.04959C12.9453 5.83738 11.1519 4.04403 8.93973 4.04403ZM2.9314 8.04959C2.9314 4.73127 5.62142 2.04125 8.93973 2.04125C12.258 2.04125 14.9481 4.73127 14.9481 8.04959C14.9481 9.34722 14.5367 10.5488 13.8373 11.5309L18.6603 16.354C19.0514 16.7451 19.0514 17.3791 18.6603 17.7702C18.2693 18.1612 17.6352 18.1612 17.2441 17.7702L12.4211 12.9471C11.4389 13.6466 10.2374 14.0579 8.93973 14.0579C5.62142 14.0579 2.9314 11.3679 2.9314 8.04959Z" fill="#231F2D"/>
</g>
</svg>
